<?xml version="1.0" ?>
<!DOCTYPE svg  PUBLIC '-//W3C//DTD SVG 1.1//EN'  'http://www.w3.org/Graphics/SVG/1.1/DTD/svg11.dtd'>
<!-- Uploaded to: SVG Repo, www.svgrepo.com, Generator: SVG Repo Mixer Tools -->
<svg width="800px" height="800px" viewBox="0 0 512 512" enable-background="new 0 0 512 512" id="Layer_1" version="1.1" xml:space="preserve" xmlns="http://www.w3.org/2000/svg" xmlns:xlink="http://www.w3.org/1999/xlink">
<g>
<path clip-rule="evenodd" d="M343.939,138.178c-68.255,2.582-68.302,70.007-68.302,70.006   c0,0-1.951-67.404-68.302-70.006c-24.021,0-64.889,26.108-64.889,87.082c0,62.697,133.191,177.589,133.191,177.589   c49.23-49.23,133.015-116.61,133.19-177.589C408.998,164.286,367.959,138.178,343.939,138.178z" fill="#FEE1E3" fill-rule="evenodd"/>
<path d="M313.203,109.151l-0.324,0.005c-37.104,1.146-57.835,21.478-67.069,40.699   c-0.439,0.889-0.85,1.774-1.25,2.657c-0.424-0.909-0.86-1.819-1.326-2.734c-9.46-19.098-30.041-39.432-66.299-40.622l-0.338-0.005   c-29.475,0.071-73.348,30.516-73.426,95.619c0.714,36.907,35.309,80.67,68.822,118.054c33.697,36.991,67.178,65.862,67.333,65.998   c3.395,2.926,8.44,2.738,11.614-0.428c48.333-49.314,134.18-115.243,135.688-183.599v-0.012c0-0.124,0-0.26,0-0.396   C386.545,139.524,342.602,109.216,313.203,109.151z M369.553,204.744c1.115,51.601-74.564,117.299-124.927,165.972   c-10.901-9.774-35.45-32.417-60.005-59.389c-33.084-35.732-65.083-80.768-64.374-106.557c0.058-56.713,37.599-78.356,56.211-78.54   c29.957,1.459,43.482,16.096,51.574,31.318c3.908,7.635,6.041,15.398,7.14,21.179c1.111,5.781,1.138,9.215,1.196,9.215   c0.13,4.662,3.993,8.354,8.655,8.29c4.663-0.065,8.415-3.869,8.415-8.532c-0.003-0.003-0.005-0.095-0.003-0.253h0.003   c0-0.007-0.002-0.027-0.003-0.04c0.026-2.134,0.658-15.982,7.664-29.943c7.837-15.112,21.224-29.744,52.238-31.233   c18.589,0.179,56.157,21.742,56.216,78.156C369.553,204.5,369.553,204.619,369.553,204.744z" fill="#959595"/>
</g>
</svg>